<!DOCTYPE svg PUBLIC "-//W3C//DTD SVG 1.1//EN" "http://www.w3.org/Graphics/SVG/1.1/DTD/svg11.dtd">
<!-- Uploaded to: SVG Repo, www.svgrepo.com, Transformed by: SVG Repo Mixer Tools -->
<svg width="800px" height="800px" viewBox="0 0 24 24" id="Layer_1" data-name="Layer 1" xmlns="http://www.w3.org/2000/svg" fill="#8c93a8" stroke="#8c93a8">
<g id="SVGRepo_bgCarrier" stroke-width="0"/>
<g id="SVGRepo_tracerCarrier" stroke-linecap="round" stroke-linejoin="round"/>
<g id="SVGRepo_iconCarrier">
<defs>
<style>.cls-1{fill:none;stroke:#8c93a8;stroke-miterlimit:10;stroke-width:0.4800000000000001;}</style>
</defs>
<path class="cls-1" d="M18.68,14.86h2.08a1.74,1.74,0,0,0,1.74-1.73,1.76,1.76,0,0,0-1-1.6L12,7.23l-9.48,4.3a1.76,1.76,0,0,0-1,1.6,1.74,1.74,0,0,0,1.74,1.73H5.32"/>
<path class="cls-1" d="M12,7.23V7a2.54,2.54,0,0,1,1.13-2,1.91,1.91,0,1,0-3-1.54"/>
<path class="cls-1" d="M7.23,13h9.55a1.91,1.91,0,0,1,1.91,1.91V22.5a0,0,0,0,1,0,0H5.32a0,0,0,0,1,0,0V14.86A1.91,1.91,0,0,1,7.23,13Z"/>
</g>
</svg>